M48
; DRILL file {KiCad 9.0.7} date 2026-02-01T00:50:54+0200
; FORMAT={-:-/ absolute / metric / decimal}
; #@! TF.CreationDate,2026-02-01T00:50:54+02:00
; #@! TF.GenerationSoftware,Kicad,Pcbnew,9.0.7
; #@! TF.FileFunction,Plated,1,2,PTH
FMAT,2
METRIC
; #@! TA.AperFunction,Plated,PTH,ComponentDrill
T1C1.000
%
G90
G05
T1
X104.32Y-52.25
X104.32Y-55.7
X104.82Y-78.55
X105.55Y-83.96
X105.55Y-86.5
X105.55Y-89.04
X106.86Y-52.25
X106.86Y-55.7
X107.36Y-78.55
X109.4Y-52.25
X109.4Y-55.7
X109.89Y-94.15
X109.9Y-78.55
X111.94Y-52.25
X111.94Y-55.7
X112.43Y-94.15
X112.44Y-78.55
X114.48Y-52.25
X114.48Y-55.7
X114.97Y-94.15
X114.98Y-78.55
X117.02Y-52.25
X117.02Y-55.7
X117.51Y-94.15
X117.52Y-78.55
X119.56Y-52.25
X119.56Y-55.7
X120.05Y-94.15
X120.06Y-78.55
X122.1Y-52.25
X122.1Y-55.7
X122.6Y-78.55
X124.64Y-52.25
X124.64Y-55.7
X125.14Y-78.55
X127.18Y-52.25
X127.18Y-55.7
X127.68Y-78.55
X129.72Y-52.25
X129.72Y-55.7
X130.22Y-78.55
X132.26Y-52.25
X132.26Y-55.7
X132.76Y-78.55
X132.77Y-94.25
X134.8Y-52.25
X134.8Y-55.7
X135.3Y-78.55
X135.31Y-94.25
X137.34Y-52.25
X137.34Y-55.7
X137.84Y-78.55
X137.85Y-94.25
X139.88Y-52.25
X139.88Y-55.7
X142.42Y-52.25
X142.42Y-55.7
X144.96Y-52.25
X144.96Y-55.7
X147.5Y-52.25
X147.5Y-55.7
X161.75Y-84.16
X161.75Y-86.7
X161.75Y-89.24
X161.75Y-91.78
X161.75Y-94.32
X161.75Y-96.86
M30
