%TF.GenerationSoftware,KiCad,Pcbnew,9.0.7*%
%TF.CreationDate,2026-02-01T00:50:36+02:00*%
%TF.ProjectId,shield,73686965-6c64-42e6-9b69-6361645f7063,rev?*%
%TF.SameCoordinates,Original*%
%TF.FileFunction,Legend,Bot*%
%TF.FilePolarity,Positive*%
%FSLAX46Y46*%
G04 Gerber Fmt 4.6, Leading zero omitted, Abs format (unit mm)*
G04 Created by KiCad (PCBNEW 9.0.7) date 2026-02-01 00:50:36*
%MOMM*%
%LPD*%
G01*
G04 APERTURE LIST*
%ADD10C,0.150000*%
%ADD11C,0.120000*%
G04 APERTURE END LIST*
D10*
X166468333Y-98584819D02*
X166468333Y-99299104D01*
X166468333Y-99299104D02*
X166515952Y-99441961D01*
X166515952Y-99441961D02*
X166611190Y-99537200D01*
X166611190Y-99537200D02*
X166754047Y-99584819D01*
X166754047Y-99584819D02*
X166849285Y-99584819D01*
X165468333Y-99584819D02*
X166039761Y-99584819D01*
X165754047Y-99584819D02*
X165754047Y-98584819D01*
X165754047Y-98584819D02*
X165849285Y-98727676D01*
X165849285Y-98727676D02*
X165944523Y-98822914D01*
X165944523Y-98822914D02*
X166039761Y-98870533D01*
X150224819Y-47126905D02*
X149224819Y-47126905D01*
X149224819Y-47126905D02*
X149224819Y-47507857D01*
X149224819Y-47507857D02*
X149272438Y-47603095D01*
X149272438Y-47603095D02*
X149320057Y-47650714D01*
X149320057Y-47650714D02*
X149415295Y-47698333D01*
X149415295Y-47698333D02*
X149558152Y-47698333D01*
X149558152Y-47698333D02*
X149653390Y-47650714D01*
X149653390Y-47650714D02*
X149701009Y-47603095D01*
X149701009Y-47603095D02*
X149748628Y-47507857D01*
X149748628Y-47507857D02*
X149748628Y-47126905D01*
X149558152Y-48555476D02*
X150224819Y-48555476D01*
X149177200Y-48317381D02*
X149891485Y-48079286D01*
X149891485Y-48079286D02*
X149891485Y-48698333D01*
%TO.C,J1*%
D11*
X165900000Y-97290000D02*
X171900000Y-97290000D01*
X171900000Y-96430000D01*
X165900000Y-96430000D01*
X165900000Y-97290000D01*
G36*
X165900000Y-97290000D02*
G01*
X171900000Y-97290000D01*
X171900000Y-96430000D01*
X165900000Y-96430000D01*
X165900000Y-97290000D01*
G37*
X163140000Y-98240000D02*
X165900000Y-98240000D01*
X165900000Y-82780000D01*
X163140000Y-82780000D01*
X163140000Y-98240000D01*
X171900000Y-83730000D02*
X165900000Y-83730000D01*
X171900000Y-84590000D02*
X171900000Y-83730000D01*
X171900000Y-86270000D02*
X165900000Y-86270000D01*
X171900000Y-87130000D02*
X171900000Y-86270000D01*
X171900000Y-88810000D02*
X165900000Y-88810000D01*
X171900000Y-89670000D02*
X171900000Y-88810000D01*
X171900000Y-91350000D02*
X165900000Y-91350000D01*
X171900000Y-92210000D02*
X171900000Y-91350000D01*
X171900000Y-93890000D02*
X165900000Y-93890000D01*
X171900000Y-94750000D02*
X171900000Y-93890000D01*
X165900000Y-84590000D02*
X171900000Y-84590000D01*
X165900000Y-87130000D02*
X171900000Y-87130000D01*
X165900000Y-89670000D02*
X171900000Y-89670000D01*
X165900000Y-92210000D02*
X171900000Y-92210000D01*
X165900000Y-94750000D02*
X171900000Y-94750000D01*
X163140000Y-85430000D02*
X165900000Y-85430000D01*
X163140000Y-87970000D02*
X165900000Y-87970000D01*
X163140000Y-90510000D02*
X165900000Y-90510000D01*
X163140000Y-93050000D02*
X165900000Y-93050000D01*
X163140000Y-95590000D02*
X165900000Y-95590000D01*
X162910000Y-96430000D02*
X163140000Y-96430000D01*
X162910000Y-97290000D02*
X163140000Y-97290000D01*
X162827358Y-83730000D02*
X163140000Y-83730000D01*
X162827358Y-84590000D02*
X163140000Y-84590000D01*
X162827358Y-86270000D02*
X163140000Y-86270000D01*
X162827358Y-87130000D02*
X163140000Y-87130000D01*
X162827358Y-88810000D02*
X163140000Y-88810000D01*
X162827358Y-89670000D02*
X163140000Y-89670000D01*
X162827358Y-91350000D02*
X163140000Y-91350000D01*
X162827358Y-92210000D02*
X163140000Y-92210000D01*
X162827358Y-93890000D02*
X163140000Y-93890000D01*
X162827358Y-94750000D02*
X163140000Y-94750000D01*
X160480000Y-96860000D02*
X160480000Y-98130000D01*
X160480000Y-98130000D02*
X161750000Y-98130000D01*
%TO.C,P4*%
X148770000Y-53520000D02*
X148770000Y-52250000D01*
X147500000Y-53520000D02*
X148770000Y-53520000D01*
X145390000Y-51172642D02*
X145390000Y-50860000D01*
X144530000Y-51172642D02*
X144530000Y-50860000D01*
X142850000Y-51172642D02*
X142850000Y-50860000D01*
X141990000Y-51172642D02*
X141990000Y-50860000D01*
X140310000Y-51172642D02*
X140310000Y-50860000D01*
X139450000Y-51172642D02*
X139450000Y-50860000D01*
X137770000Y-51172642D02*
X137770000Y-50860000D01*
X136910000Y-51172642D02*
X136910000Y-50860000D01*
X135230000Y-51172642D02*
X135230000Y-50860000D01*
X134370000Y-51172642D02*
X134370000Y-50860000D01*
X132690000Y-51172642D02*
X132690000Y-50860000D01*
X131830000Y-51172642D02*
X131830000Y-50860000D01*
X130150000Y-51172642D02*
X130150000Y-50860000D01*
X129290000Y-51172642D02*
X129290000Y-50860000D01*
X127610000Y-51172642D02*
X127610000Y-50860000D01*
X126750000Y-51172642D02*
X126750000Y-50860000D01*
X125070000Y-51172642D02*
X125070000Y-50860000D01*
X124210000Y-51172642D02*
X124210000Y-50860000D01*
X122530000Y-51172642D02*
X122530000Y-50860000D01*
X121670000Y-51172642D02*
X121670000Y-50860000D01*
X119990000Y-51172642D02*
X119990000Y-50860000D01*
X119130000Y-51172642D02*
X119130000Y-50860000D01*
X117450000Y-51172642D02*
X117450000Y-50860000D01*
X116590000Y-51172642D02*
X116590000Y-50860000D01*
X114910000Y-51172642D02*
X114910000Y-50860000D01*
X114050000Y-51172642D02*
X114050000Y-50860000D01*
X112370000Y-51172642D02*
X112370000Y-50860000D01*
X111510000Y-51172642D02*
X111510000Y-50860000D01*
X109830000Y-51172642D02*
X109830000Y-50860000D01*
X108970000Y-51172642D02*
X108970000Y-50860000D01*
X107290000Y-51172642D02*
X107290000Y-50860000D01*
X106430000Y-51172642D02*
X106430000Y-50860000D01*
X104750000Y-51172642D02*
X104750000Y-50860000D01*
X103890000Y-51172642D02*
X103890000Y-50860000D01*
X147930000Y-51090000D02*
X147930000Y-50860000D01*
X147070000Y-51090000D02*
X147070000Y-50860000D01*
X146230000Y-50860000D02*
X146230000Y-48100000D01*
X143690000Y-50860000D02*
X143690000Y-48100000D01*
X141150000Y-50860000D02*
X141150000Y-48100000D01*
X138610000Y-50860000D02*
X138610000Y-48100000D01*
X136070000Y-50860000D02*
X136070000Y-48100000D01*
X133530000Y-50860000D02*
X133530000Y-48100000D01*
X130990000Y-50860000D02*
X130990000Y-48100000D01*
X128450000Y-50860000D02*
X128450000Y-48100000D01*
X125910000Y-50860000D02*
X125910000Y-48100000D01*
X123370000Y-50860000D02*
X123370000Y-48100000D01*
X120830000Y-50860000D02*
X120830000Y-48100000D01*
X118290000Y-50860000D02*
X118290000Y-48100000D01*
X115750000Y-50860000D02*
X115750000Y-48100000D01*
X113210000Y-50860000D02*
X113210000Y-48100000D01*
X110670000Y-50860000D02*
X110670000Y-48100000D01*
X108130000Y-50860000D02*
X108130000Y-48100000D01*
X105590000Y-50860000D02*
X105590000Y-48100000D01*
X145390000Y-48100000D02*
X145390000Y-42100000D01*
X142850000Y-48100000D02*
X142850000Y-42100000D01*
X140310000Y-48100000D02*
X140310000Y-42100000D01*
X137770000Y-48100000D02*
X137770000Y-42100000D01*
X135230000Y-48100000D02*
X135230000Y-42100000D01*
X132690000Y-48100000D02*
X132690000Y-42100000D01*
X130150000Y-48100000D02*
X130150000Y-42100000D01*
X127610000Y-48100000D02*
X127610000Y-42100000D01*
X125070000Y-48100000D02*
X125070000Y-42100000D01*
X122530000Y-48100000D02*
X122530000Y-42100000D01*
X119990000Y-48100000D02*
X119990000Y-42100000D01*
X117450000Y-48100000D02*
X117450000Y-42100000D01*
X114910000Y-48100000D02*
X114910000Y-42100000D01*
X112370000Y-48100000D02*
X112370000Y-42100000D01*
X109830000Y-48100000D02*
X109830000Y-42100000D01*
X107290000Y-48100000D02*
X107290000Y-42100000D01*
X104750000Y-48100000D02*
X104750000Y-42100000D01*
X145390000Y-42100000D02*
X144530000Y-42100000D01*
X144530000Y-42100000D02*
X144530000Y-48100000D01*
X142850000Y-42100000D02*
X141990000Y-42100000D01*
X141990000Y-42100000D02*
X141990000Y-48100000D01*
X140310000Y-42100000D02*
X139450000Y-42100000D01*
X139450000Y-42100000D02*
X139450000Y-48100000D01*
X137770000Y-42100000D02*
X136910000Y-42100000D01*
X136910000Y-42100000D02*
X136910000Y-48100000D01*
X135230000Y-42100000D02*
X134370000Y-42100000D01*
X134370000Y-42100000D02*
X134370000Y-48100000D01*
X132690000Y-42100000D02*
X131830000Y-42100000D01*
X131830000Y-42100000D02*
X131830000Y-48100000D01*
X130150000Y-42100000D02*
X129290000Y-42100000D01*
X129290000Y-42100000D02*
X129290000Y-48100000D01*
X127610000Y-42100000D02*
X126750000Y-42100000D01*
X126750000Y-42100000D02*
X126750000Y-48100000D01*
X125070000Y-42100000D02*
X124210000Y-42100000D01*
X124210000Y-42100000D02*
X124210000Y-48100000D01*
X122530000Y-42100000D02*
X121670000Y-42100000D01*
X121670000Y-42100000D02*
X121670000Y-48100000D01*
X119990000Y-42100000D02*
X119130000Y-42100000D01*
X119130000Y-42100000D02*
X119130000Y-48100000D01*
X117450000Y-42100000D02*
X116590000Y-42100000D01*
X116590000Y-42100000D02*
X116590000Y-48100000D01*
X114910000Y-42100000D02*
X114050000Y-42100000D01*
X114050000Y-42100000D02*
X114050000Y-48100000D01*
X112370000Y-42100000D02*
X111510000Y-42100000D01*
X111510000Y-42100000D02*
X111510000Y-48100000D01*
X109830000Y-42100000D02*
X108970000Y-42100000D01*
X108970000Y-42100000D02*
X108970000Y-48100000D01*
X107290000Y-42100000D02*
X106430000Y-42100000D01*
X106430000Y-42100000D02*
X106430000Y-48100000D01*
X104750000Y-42100000D02*
X103890000Y-42100000D01*
X103890000Y-42100000D02*
X103890000Y-48100000D01*
X148880000Y-50860000D02*
X102940000Y-50860000D01*
X102940000Y-48100000D01*
X148880000Y-48100000D01*
X148880000Y-50860000D01*
X147930000Y-48100000D02*
X147070000Y-48100000D01*
X147070000Y-42100000D01*
X147930000Y-42100000D01*
X147930000Y-48100000D01*
G36*
X147930000Y-48100000D02*
G01*
X147070000Y-48100000D01*
X147070000Y-42100000D01*
X147930000Y-42100000D01*
X147930000Y-48100000D01*
G37*
%TD*%
M02*
