%TF.GenerationSoftware,KiCad,Pcbnew,9.0.7*%
%TF.CreationDate,2026-02-01T00:50:36+02:00*%
%TF.ProjectId,shield,73686965-6c64-42e6-9b69-6361645f7063,rev?*%
%TF.SameCoordinates,Original*%
%TF.FileFunction,Copper,L1,Top*%
%TF.FilePolarity,Positive*%
%FSLAX46Y46*%
G04 Gerber Fmt 4.6, Leading zero omitted, Abs format (unit mm)*
G04 Created by KiCad (PCBNEW 9.0.7) date 2026-02-01 00:50:36*
%MOMM*%
%LPD*%
G01*
G04 APERTURE LIST*
G04 Aperture macros list*
%AMRoundRect*
0 Rectangle with rounded corners*
0 $1 Rounding radius*
0 $2 $3 $4 $5 $6 $7 $8 $9 X,Y pos of 4 corners*
0 Add a 4 corners polygon primitive as box body*
4,1,4,$2,$3,$4,$5,$6,$7,$8,$9,$2,$3,0*
0 Add four circle primitives for the rounded corners*
1,1,$1+$1,$2,$3*
1,1,$1+$1,$4,$5*
1,1,$1+$1,$6,$7*
1,1,$1+$1,$8,$9*
0 Add four rect primitives between the rounded corners*
20,1,$1+$1,$2,$3,$4,$5,0*
20,1,$1+$1,$4,$5,$6,$7,0*
20,1,$1+$1,$6,$7,$8,$9,0*
20,1,$1+$1,$8,$9,$2,$3,0*%
G04 Aperture macros list end*
%ADD10C,0.300000*%
%TA.AperFunction,NonConductor*%
%ADD11C,0.300000*%
%TD*%
%TA.AperFunction,NonConductor*%
%ADD12C,0.150000*%
%TD*%
%TA.AperFunction,ComponentPad*%
%ADD13C,1.700000*%
%TD*%
%TA.AperFunction,ComponentPad*%
%ADD14R,1.700000X1.700000*%
%TD*%
%TA.AperFunction,SMDPad,CuDef*%
%ADD15RoundRect,0.250000X-0.850000X-0.350000X0.850000X-0.350000X0.850000X0.350000X-0.850000X0.350000X0*%
%TD*%
%TA.AperFunction,SMDPad,CuDef*%
%ADD16RoundRect,0.249997X-2.950003X-2.650003X2.950003X-2.650003X2.950003X2.650003X-2.950003X2.650003X0*%
%TD*%
%TA.AperFunction,Conductor*%
%ADD17C,0.250000*%
%TD*%
G04 APERTURE END LIST*
D10*
D11*
X101640225Y-97400828D02*
X101783082Y-97400828D01*
X101783082Y-97400828D02*
X101925939Y-97472257D01*
X101925939Y-97472257D02*
X101997368Y-97543685D01*
X101997368Y-97543685D02*
X102068796Y-97686542D01*
X102068796Y-97686542D02*
X102140225Y-97972257D01*
X102140225Y-97972257D02*
X102140225Y-98329400D01*
X102140225Y-98329400D02*
X102068796Y-98615114D01*
X102068796Y-98615114D02*
X101997368Y-98757971D01*
X101997368Y-98757971D02*
X101925939Y-98829400D01*
X101925939Y-98829400D02*
X101783082Y-98900828D01*
X101783082Y-98900828D02*
X101640225Y-98900828D01*
X101640225Y-98900828D02*
X101497368Y-98829400D01*
X101497368Y-98829400D02*
X101425939Y-98757971D01*
X101425939Y-98757971D02*
X101354510Y-98615114D01*
X101354510Y-98615114D02*
X101283082Y-98329400D01*
X101283082Y-98329400D02*
X101283082Y-97972257D01*
X101283082Y-97972257D02*
X101354510Y-97686542D01*
X101354510Y-97686542D02*
X101425939Y-97543685D01*
X101425939Y-97543685D02*
X101497368Y-97472257D01*
X101497368Y-97472257D02*
X101640225Y-97400828D01*
X102783081Y-98757971D02*
X102854510Y-98829400D01*
X102854510Y-98829400D02*
X102783081Y-98900828D01*
X102783081Y-98900828D02*
X102711653Y-98829400D01*
X102711653Y-98829400D02*
X102783081Y-98757971D01*
X102783081Y-98757971D02*
X102783081Y-98900828D01*
X103354510Y-97400828D02*
X104283082Y-97400828D01*
X104283082Y-97400828D02*
X103783082Y-97972257D01*
X103783082Y-97972257D02*
X103997367Y-97972257D01*
X103997367Y-97972257D02*
X104140225Y-98043685D01*
X104140225Y-98043685D02*
X104211653Y-98115114D01*
X104211653Y-98115114D02*
X104283082Y-98257971D01*
X104283082Y-98257971D02*
X104283082Y-98615114D01*
X104283082Y-98615114D02*
X104211653Y-98757971D01*
X104211653Y-98757971D02*
X104140225Y-98829400D01*
X104140225Y-98829400D02*
X103997367Y-98900828D01*
X103997367Y-98900828D02*
X103568796Y-98900828D01*
X103568796Y-98900828D02*
X103425939Y-98829400D01*
X103425939Y-98829400D02*
X103354510Y-98757971D01*
X104925938Y-98757971D02*
X104997367Y-98829400D01*
X104997367Y-98829400D02*
X104925938Y-98900828D01*
X104925938Y-98900828D02*
X104854510Y-98829400D01*
X104854510Y-98829400D02*
X104925938Y-98757971D01*
X104925938Y-98757971D02*
X104925938Y-98900828D01*
X106425939Y-98900828D02*
X105568796Y-98900828D01*
X105997367Y-98900828D02*
X105997367Y-97400828D01*
X105997367Y-97400828D02*
X105854510Y-97615114D01*
X105854510Y-97615114D02*
X105711653Y-97757971D01*
X105711653Y-97757971D02*
X105568796Y-97829400D01*
D10*
D11*
X153675939Y-53079400D02*
X153533082Y-53150828D01*
X153533082Y-53150828D02*
X153247368Y-53150828D01*
X153247368Y-53150828D02*
X153104510Y-53079400D01*
X153104510Y-53079400D02*
X153033082Y-52936542D01*
X153033082Y-52936542D02*
X153033082Y-52365114D01*
X153033082Y-52365114D02*
X153104510Y-52222257D01*
X153104510Y-52222257D02*
X153247368Y-52150828D01*
X153247368Y-52150828D02*
X153533082Y-52150828D01*
X153533082Y-52150828D02*
X153675939Y-52222257D01*
X153675939Y-52222257D02*
X153747368Y-52365114D01*
X153747368Y-52365114D02*
X153747368Y-52507971D01*
X153747368Y-52507971D02*
X153033082Y-52650828D01*
X154390224Y-53150828D02*
X154390224Y-52150828D01*
X154390224Y-51650828D02*
X154318796Y-51722257D01*
X154318796Y-51722257D02*
X154390224Y-51793685D01*
X154390224Y-51793685D02*
X154461653Y-51722257D01*
X154461653Y-51722257D02*
X154390224Y-51650828D01*
X154390224Y-51650828D02*
X154390224Y-51793685D01*
X155104510Y-52150828D02*
X155104510Y-53150828D01*
X155104510Y-52293685D02*
X155175939Y-52222257D01*
X155175939Y-52222257D02*
X155318796Y-52150828D01*
X155318796Y-52150828D02*
X155533082Y-52150828D01*
X155533082Y-52150828D02*
X155675939Y-52222257D01*
X155675939Y-52222257D02*
X155747368Y-52365114D01*
X155747368Y-52365114D02*
X155747368Y-53150828D01*
X156461653Y-53150828D02*
X156461653Y-51650828D01*
X156604511Y-52579400D02*
X157033082Y-53150828D01*
X157033082Y-52150828D02*
X156461653Y-52722257D01*
X157461654Y-52150828D02*
X158033082Y-52150828D01*
X157675939Y-53150828D02*
X157675939Y-51865114D01*
X157675939Y-51865114D02*
X157747368Y-51722257D01*
X157747368Y-51722257D02*
X157890225Y-51650828D01*
X157890225Y-51650828D02*
X158033082Y-51650828D01*
X158533082Y-53150828D02*
X158533082Y-52150828D01*
X158533082Y-52436542D02*
X158604511Y-52293685D01*
X158604511Y-52293685D02*
X158675940Y-52222257D01*
X158675940Y-52222257D02*
X158818797Y-52150828D01*
X158818797Y-52150828D02*
X158961654Y-52150828D01*
X160104511Y-53150828D02*
X160104511Y-52365114D01*
X160104511Y-52365114D02*
X160033082Y-52222257D01*
X160033082Y-52222257D02*
X159890225Y-52150828D01*
X159890225Y-52150828D02*
X159604511Y-52150828D01*
X159604511Y-52150828D02*
X159461653Y-52222257D01*
X160104511Y-53079400D02*
X159961653Y-53150828D01*
X159961653Y-53150828D02*
X159604511Y-53150828D01*
X159604511Y-53150828D02*
X159461653Y-53079400D01*
X159461653Y-53079400D02*
X159390225Y-52936542D01*
X159390225Y-52936542D02*
X159390225Y-52793685D01*
X159390225Y-52793685D02*
X159461653Y-52650828D01*
X159461653Y-52650828D02*
X159604511Y-52579400D01*
X159604511Y-52579400D02*
X159961653Y-52579400D01*
X159961653Y-52579400D02*
X160104511Y-52507971D01*
X160818796Y-53150828D02*
X160818796Y-52150828D01*
X160818796Y-52293685D02*
X160890225Y-52222257D01*
X160890225Y-52222257D02*
X161033082Y-52150828D01*
X161033082Y-52150828D02*
X161247368Y-52150828D01*
X161247368Y-52150828D02*
X161390225Y-52222257D01*
X161390225Y-52222257D02*
X161461654Y-52365114D01*
X161461654Y-52365114D02*
X161461654Y-53150828D01*
X161461654Y-52365114D02*
X161533082Y-52222257D01*
X161533082Y-52222257D02*
X161675939Y-52150828D01*
X161675939Y-52150828D02*
X161890225Y-52150828D01*
X161890225Y-52150828D02*
X162033082Y-52222257D01*
X162033082Y-52222257D02*
X162104511Y-52365114D01*
X162104511Y-52365114D02*
X162104511Y-53150828D01*
X163390225Y-53079400D02*
X163247368Y-53150828D01*
X163247368Y-53150828D02*
X162961654Y-53150828D01*
X162961654Y-53150828D02*
X162818796Y-53079400D01*
X162818796Y-53079400D02*
X162747368Y-52936542D01*
X162747368Y-52936542D02*
X162747368Y-52365114D01*
X162747368Y-52365114D02*
X162818796Y-52222257D01*
X162818796Y-52222257D02*
X162961654Y-52150828D01*
X162961654Y-52150828D02*
X163247368Y-52150828D01*
X163247368Y-52150828D02*
X163390225Y-52222257D01*
X163390225Y-52222257D02*
X163461654Y-52365114D01*
X163461654Y-52365114D02*
X163461654Y-52507971D01*
X163461654Y-52507971D02*
X162747368Y-52650828D01*
D10*
D11*
X156261653Y-50750828D02*
X155761653Y-50036542D01*
X155404510Y-50750828D02*
X155404510Y-49250828D01*
X155404510Y-49250828D02*
X155975939Y-49250828D01*
X155975939Y-49250828D02*
X156118796Y-49322257D01*
X156118796Y-49322257D02*
X156190225Y-49393685D01*
X156190225Y-49393685D02*
X156261653Y-49536542D01*
X156261653Y-49536542D02*
X156261653Y-49750828D01*
X156261653Y-49750828D02*
X156190225Y-49893685D01*
X156190225Y-49893685D02*
X156118796Y-49965114D01*
X156118796Y-49965114D02*
X155975939Y-50036542D01*
X155975939Y-50036542D02*
X155404510Y-50036542D01*
X156904510Y-50750828D02*
X156904510Y-49250828D01*
X157761653Y-50750828D02*
X157118796Y-49893685D01*
X157761653Y-49250828D02*
X156904510Y-50107971D01*
X158404510Y-49250828D02*
X158404510Y-50465114D01*
X158404510Y-50465114D02*
X158475939Y-50607971D01*
X158475939Y-50607971D02*
X158547368Y-50679400D01*
X158547368Y-50679400D02*
X158690225Y-50750828D01*
X158690225Y-50750828D02*
X158975939Y-50750828D01*
X158975939Y-50750828D02*
X159118796Y-50679400D01*
X159118796Y-50679400D02*
X159190225Y-50607971D01*
X159190225Y-50607971D02*
X159261653Y-50465114D01*
X159261653Y-50465114D02*
X159261653Y-49250828D01*
X159975939Y-50607971D02*
X160047368Y-50679400D01*
X160047368Y-50679400D02*
X159975939Y-50750828D01*
X159975939Y-50750828D02*
X159904511Y-50679400D01*
X159904511Y-50679400D02*
X159975939Y-50607971D01*
X159975939Y-50607971D02*
X159975939Y-50750828D01*
X161190225Y-49965114D02*
X160690225Y-49965114D01*
X160690225Y-50750828D02*
X160690225Y-49250828D01*
X160690225Y-49250828D02*
X161404511Y-49250828D01*
X161975939Y-50750828D02*
X161975939Y-49250828D01*
X163761654Y-49179400D02*
X162475940Y-51107971D01*
D10*
D11*
X100721185Y-74053569D02*
X100649757Y-73982141D01*
X100649757Y-73982141D02*
X100578328Y-73839284D01*
X100578328Y-73839284D02*
X100578328Y-73482141D01*
X100578328Y-73482141D02*
X100649757Y-73339284D01*
X100649757Y-73339284D02*
X100721185Y-73267855D01*
X100721185Y-73267855D02*
X100864042Y-73196426D01*
X100864042Y-73196426D02*
X101006900Y-73196426D01*
X101006900Y-73196426D02*
X101221185Y-73267855D01*
X101221185Y-73267855D02*
X102078328Y-74124998D01*
X102078328Y-74124998D02*
X102078328Y-73196426D01*
X100721185Y-72624998D02*
X100649757Y-72553570D01*
X100649757Y-72553570D02*
X100578328Y-72410713D01*
X100578328Y-72410713D02*
X100578328Y-72053570D01*
X100578328Y-72053570D02*
X100649757Y-71910713D01*
X100649757Y-71910713D02*
X100721185Y-71839284D01*
X100721185Y-71839284D02*
X100864042Y-71767855D01*
X100864042Y-71767855D02*
X101006900Y-71767855D01*
X101006900Y-71767855D02*
X101221185Y-71839284D01*
X101221185Y-71839284D02*
X102078328Y-72696427D01*
X102078328Y-72696427D02*
X102078328Y-71767855D01*
X101935471Y-71124999D02*
X102006900Y-71053570D01*
X102006900Y-71053570D02*
X102078328Y-71124999D01*
X102078328Y-71124999D02*
X102006900Y-71196427D01*
X102006900Y-71196427D02*
X101935471Y-71124999D01*
X101935471Y-71124999D02*
X102078328Y-71124999D01*
X101221185Y-70196427D02*
X101149757Y-70339284D01*
X101149757Y-70339284D02*
X101078328Y-70410713D01*
X101078328Y-70410713D02*
X100935471Y-70482141D01*
X100935471Y-70482141D02*
X100864042Y-70482141D01*
X100864042Y-70482141D02*
X100721185Y-70410713D01*
X100721185Y-70410713D02*
X100649757Y-70339284D01*
X100649757Y-70339284D02*
X100578328Y-70196427D01*
X100578328Y-70196427D02*
X100578328Y-69910713D01*
X100578328Y-69910713D02*
X100649757Y-69767856D01*
X100649757Y-69767856D02*
X100721185Y-69696427D01*
X100721185Y-69696427D02*
X100864042Y-69624998D01*
X100864042Y-69624998D02*
X100935471Y-69624998D01*
X100935471Y-69624998D02*
X101078328Y-69696427D01*
X101078328Y-69696427D02*
X101149757Y-69767856D01*
X101149757Y-69767856D02*
X101221185Y-69910713D01*
X101221185Y-69910713D02*
X101221185Y-70196427D01*
X101221185Y-70196427D02*
X101292614Y-70339284D01*
X101292614Y-70339284D02*
X101364042Y-70410713D01*
X101364042Y-70410713D02*
X101506900Y-70482141D01*
X101506900Y-70482141D02*
X101792614Y-70482141D01*
X101792614Y-70482141D02*
X101935471Y-70410713D01*
X101935471Y-70410713D02*
X102006900Y-70339284D01*
X102006900Y-70339284D02*
X102078328Y-70196427D01*
X102078328Y-70196427D02*
X102078328Y-69910713D01*
X102078328Y-69910713D02*
X102006900Y-69767856D01*
X102006900Y-69767856D02*
X101935471Y-69696427D01*
X101935471Y-69696427D02*
X101792614Y-69624998D01*
X101792614Y-69624998D02*
X101506900Y-69624998D01*
X101506900Y-69624998D02*
X101364042Y-69696427D01*
X101364042Y-69696427D02*
X101292614Y-69767856D01*
X101292614Y-69767856D02*
X101221185Y-69910713D01*
X100578328Y-68267856D02*
X100578328Y-68982142D01*
X100578328Y-68982142D02*
X101292614Y-69053570D01*
X101292614Y-69053570D02*
X101221185Y-68982142D01*
X101221185Y-68982142D02*
X101149757Y-68839285D01*
X101149757Y-68839285D02*
X101149757Y-68482142D01*
X101149757Y-68482142D02*
X101221185Y-68339285D01*
X101221185Y-68339285D02*
X101292614Y-68267856D01*
X101292614Y-68267856D02*
X101435471Y-68196427D01*
X101435471Y-68196427D02*
X101792614Y-68196427D01*
X101792614Y-68196427D02*
X101935471Y-68267856D01*
X101935471Y-68267856D02*
X102006900Y-68339285D01*
X102006900Y-68339285D02*
X102078328Y-68482142D01*
X102078328Y-68482142D02*
X102078328Y-68839285D01*
X102078328Y-68839285D02*
X102006900Y-68982142D01*
X102006900Y-68982142D02*
X101935471Y-69053570D01*
X100578328Y-67267856D02*
X100578328Y-67124999D01*
X100578328Y-67124999D02*
X100649757Y-66982142D01*
X100649757Y-66982142D02*
X100721185Y-66910714D01*
X100721185Y-66910714D02*
X100864042Y-66839285D01*
X100864042Y-66839285D02*
X101149757Y-66767856D01*
X101149757Y-66767856D02*
X101506900Y-66767856D01*
X101506900Y-66767856D02*
X101792614Y-66839285D01*
X101792614Y-66839285D02*
X101935471Y-66910714D01*
X101935471Y-66910714D02*
X102006900Y-66982142D01*
X102006900Y-66982142D02*
X102078328Y-67124999D01*
X102078328Y-67124999D02*
X102078328Y-67267856D01*
X102078328Y-67267856D02*
X102006900Y-67410714D01*
X102006900Y-67410714D02*
X101935471Y-67482142D01*
X101935471Y-67482142D02*
X101792614Y-67553571D01*
X101792614Y-67553571D02*
X101506900Y-67624999D01*
X101506900Y-67624999D02*
X101149757Y-67624999D01*
X101149757Y-67624999D02*
X100864042Y-67553571D01*
X100864042Y-67553571D02*
X100721185Y-67482142D01*
X100721185Y-67482142D02*
X100649757Y-67410714D01*
X100649757Y-67410714D02*
X100578328Y-67267856D01*
X100578328Y-65839285D02*
X100578328Y-65696428D01*
X100578328Y-65696428D02*
X100649757Y-65553571D01*
X100649757Y-65553571D02*
X100721185Y-65482143D01*
X100721185Y-65482143D02*
X100864042Y-65410714D01*
X100864042Y-65410714D02*
X101149757Y-65339285D01*
X101149757Y-65339285D02*
X101506900Y-65339285D01*
X101506900Y-65339285D02*
X101792614Y-65410714D01*
X101792614Y-65410714D02*
X101935471Y-65482143D01*
X101935471Y-65482143D02*
X102006900Y-65553571D01*
X102006900Y-65553571D02*
X102078328Y-65696428D01*
X102078328Y-65696428D02*
X102078328Y-65839285D01*
X102078328Y-65839285D02*
X102006900Y-65982143D01*
X102006900Y-65982143D02*
X101935471Y-66053571D01*
X101935471Y-66053571D02*
X101792614Y-66125000D01*
X101792614Y-66125000D02*
X101506900Y-66196428D01*
X101506900Y-66196428D02*
X101149757Y-66196428D01*
X101149757Y-66196428D02*
X100864042Y-66125000D01*
X100864042Y-66125000D02*
X100721185Y-66053571D01*
X100721185Y-66053571D02*
X100649757Y-65982143D01*
X100649757Y-65982143D02*
X100578328Y-65839285D01*
X102078328Y-63553572D02*
X101078328Y-63553572D01*
X101221185Y-63553572D02*
X101149757Y-63482143D01*
X101149757Y-63482143D02*
X101078328Y-63339286D01*
X101078328Y-63339286D02*
X101078328Y-63125000D01*
X101078328Y-63125000D02*
X101149757Y-62982143D01*
X101149757Y-62982143D02*
X101292614Y-62910715D01*
X101292614Y-62910715D02*
X102078328Y-62910715D01*
X101292614Y-62910715D02*
X101149757Y-62839286D01*
X101149757Y-62839286D02*
X101078328Y-62696429D01*
X101078328Y-62696429D02*
X101078328Y-62482143D01*
X101078328Y-62482143D02*
X101149757Y-62339286D01*
X101149757Y-62339286D02*
X101292614Y-62267857D01*
X101292614Y-62267857D02*
X102078328Y-62267857D01*
X102078328Y-61553572D02*
X101078328Y-61553572D01*
X101221185Y-61553572D02*
X101149757Y-61482143D01*
X101149757Y-61482143D02*
X101078328Y-61339286D01*
X101078328Y-61339286D02*
X101078328Y-61125000D01*
X101078328Y-61125000D02*
X101149757Y-60982143D01*
X101149757Y-60982143D02*
X101292614Y-60910715D01*
X101292614Y-60910715D02*
X102078328Y-60910715D01*
X101292614Y-60910715D02*
X101149757Y-60839286D01*
X101149757Y-60839286D02*
X101078328Y-60696429D01*
X101078328Y-60696429D02*
X101078328Y-60482143D01*
X101078328Y-60482143D02*
X101149757Y-60339286D01*
X101149757Y-60339286D02*
X101292614Y-60267857D01*
X101292614Y-60267857D02*
X102078328Y-60267857D01*
D12*
X103820000Y-55700000D02*
X102613580Y-55700000D01*
X102613580Y-78550000D02*
X104320000Y-78550000D01*
X103200000Y-55700000D02*
X103200000Y-78550000D01*
X103200000Y-55700000D02*
X103786421Y-56826504D01*
X103200000Y-55700000D02*
X102613579Y-56826504D01*
X103200000Y-78550000D02*
X102613579Y-77423496D01*
X103200000Y-78550000D02*
X103786421Y-77423496D01*
D13*
%TO.P,J1,6,Pin_6*%
%TO.N,GND*%
X161750000Y-84160000D03*
%TO.P,J1,5,Pin_5*%
%TO.N,/IO19{slash}MISO*%
X161750000Y-86700000D03*
%TO.P,J1,4,Pin_4*%
%TO.N,/IO18{slash}SCK*%
X161750000Y-89240000D03*
%TO.P,J1,3,Pin_3*%
%TO.N,/IO23{slash}MOSI*%
X161750000Y-91780000D03*
%TO.P,J1,2,Pin_2*%
%TO.N,/IO17{slash}D10*%
X161750000Y-94320000D03*
D14*
%TO.P,J1,1,Pin_1*%
%TO.N,+3V3*%
X161750000Y-96860000D03*
%TD*%
%TO.P,P7,1,Pin_1*%
%TO.N,GND*%
X120050000Y-94150000D03*
D13*
%TO.P,P7,2,Pin_2*%
%TO.N,/IO39{slash}A1*%
X117510000Y-94150000D03*
%TO.P,P7,3,Pin_3*%
%TO.N,/IO36{slash}A0*%
X114970000Y-94150000D03*
%TO.P,P7,4,Pin_4*%
%TO.N,/IO12{slash}D13*%
X112430000Y-94150000D03*
%TO.P,P7,5,Pin_5*%
%TO.N,/IO4{slash}D12*%
X109890000Y-94150000D03*
%TD*%
D14*
%TO.P,P6,1,Pin_1*%
%TO.N,+3.3V*%
X105550000Y-89040000D03*
D13*
%TO.P,P6,2,Pin_2*%
%TO.N,unconnected-(P6-Pin_2-Pad2)*%
X105550000Y-86500000D03*
%TO.P,P6,3,Pin_3*%
%TO.N,GND*%
X105550000Y-83960000D03*
%TD*%
D15*
%TO.P,U1,1,VI*%
%TO.N,VCC*%
X141625000Y-84545000D03*
D16*
%TO.P,U1,2,GND*%
%TO.N,GND*%
X147925000Y-86825000D03*
D15*
%TO.P,U1,3,VO*%
%TO.N,+3.3V*%
X141625000Y-89105000D03*
%TD*%
D14*
%TO.P,P3,1,Pin_1*%
%TO.N,VCC*%
X137840000Y-78550000D03*
D13*
%TO.P,P3,2,Pin_2*%
%TO.N,+3V3*%
X135300000Y-78550000D03*
%TO.P,P3,3,Pin_3*%
%TO.N,GND*%
X132760000Y-78550000D03*
%TO.P,P3,4,Pin_4*%
%TO.N,/IO22{slash}SCL*%
X130220000Y-78550000D03*
%TO.P,P3,5,Pin_5*%
%TO.N,/IO21{slash}SDA*%
X127680000Y-78550000D03*
%TO.P,P3,6,Pin_6*%
%TO.N,/IO15{slash}A4*%
X125140000Y-78550000D03*
%TO.P,P3,7,Pin_7*%
%TO.N,/IO35{slash}A3*%
X122600000Y-78550000D03*
%TO.P,P3,8,Pin_8*%
%TO.N,/IO34{slash}A2*%
X120060000Y-78550000D03*
%TO.P,P3,9,Pin_9*%
%TO.N,/IO39{slash}A1*%
X117520000Y-78550000D03*
%TO.P,P3,10,Pin_10*%
%TO.N,/IO36{slash}A0*%
X114980000Y-78550000D03*
%TO.P,P3,11,Pin_11*%
%TO.N,/IO12{slash}D13*%
X112440000Y-78550000D03*
%TO.P,P3,12,Pin_12*%
%TO.N,/IO4{slash}D12*%
X109900000Y-78550000D03*
%TO.P,P3,13,Pin_13*%
%TO.N,unconnected-(P3-Pin_13-Pad13)*%
X107360000Y-78550000D03*
%TO.P,P3,14,Pin_14*%
%TO.N,/IO17{slash}D10*%
X104820000Y-78550000D03*
%TD*%
D14*
%TO.P,P5,1,Pin_1*%
%TO.N,VCC*%
X137850000Y-94250000D03*
D13*
%TO.P,P5,2,Pin_2*%
%TO.N,unconnected-(P5-Pin_2-Pad2)*%
X135310000Y-94250000D03*
%TO.P,P5,3,Pin_3*%
%TO.N,GND*%
X132770000Y-94250000D03*
%TD*%
D14*
%TO.P,P4,1,Pin_1*%
%TO.N,/RST*%
X147500000Y-52250000D03*
D13*
%TO.P,P4,2,Pin_2*%
%TO.N,+3V3*%
X144960000Y-52250000D03*
%TO.P,P4,3,Pin_3*%
%TO.N,unconnected-(P4-Pin_3-Pad3)*%
X142420000Y-52250000D03*
%TO.P,P4,4,Pin_4*%
%TO.N,GND*%
X139880000Y-52250000D03*
%TO.P,P4,5,Pin_5*%
%TO.N,/EN*%
X137340000Y-52250000D03*
%TO.P,P4,6,Pin_6*%
%TO.N,/IO18{slash}SCK*%
X134800000Y-52250000D03*
%TO.P,P4,7,Pin_7*%
%TO.N,/IO23{slash}MOSI*%
X132260000Y-52250000D03*
%TO.P,P4,8,Pin_8*%
%TO.N,/IO19{slash}MISO*%
X129720000Y-52250000D03*
%TO.P,P4,9,Pin_9*%
%TO.N,/IO22{slash}SCL*%
X127180000Y-52250000D03*
%TO.P,P4,10,Pin_10*%
%TO.N,/IO21{slash}SDA*%
X124640000Y-52250000D03*
%TO.P,P4,11,Pin_11*%
%TO.N,/IO2{slash}D9*%
X122100000Y-52250000D03*
%TO.P,P4,12,Pin_12*%
%TO.N,/IO13{slash}D7*%
X119560000Y-52250000D03*
%TO.P,P4,13,Pin_13*%
%TO.N,/IO14{slash}D6*%
X117020000Y-52250000D03*
%TO.P,P4,14,Pin_14*%
%TO.N,/IO0{slash}D5*%
X114480000Y-52250000D03*
%TO.P,P4,15,Pin_15*%
%TO.N,/IO26{slash}D3*%
X111940000Y-52250000D03*
%TO.P,P4,16,Pin_16*%
%TO.N,/IO25{slash}D2*%
X109400000Y-52250000D03*
%TO.P,P4,17,Pin_17*%
%TO.N,/D1(Tx)*%
X106860000Y-52250000D03*
%TO.P,P4,18,Pin_18*%
%TO.N,/D0(Rx)*%
X104320000Y-52250000D03*
%TD*%
%TO.P,P1,18,Pin_18*%
%TO.N,/D0(Rx)*%
X104320000Y-55700000D03*
%TO.P,P1,17,Pin_17*%
%TO.N,/D1(Tx)*%
X106860000Y-55700000D03*
%TO.P,P1,16,Pin_16*%
%TO.N,/IO25{slash}D2*%
X109400000Y-55700000D03*
%TO.P,P1,15,Pin_15*%
%TO.N,/IO26{slash}D3*%
X111940000Y-55700000D03*
%TO.P,P1,14,Pin_14*%
%TO.N,/IO0{slash}D5*%
X114480000Y-55700000D03*
%TO.P,P1,13,Pin_13*%
%TO.N,/IO14{slash}D6*%
X117020000Y-55700000D03*
%TO.P,P1,12,Pin_12*%
%TO.N,/IO13{slash}D7*%
X119560000Y-55700000D03*
%TO.P,P1,11,Pin_11*%
%TO.N,/IO2{slash}D9*%
X122100000Y-55700000D03*
%TO.P,P1,10,Pin_10*%
%TO.N,/IO21{slash}SDA*%
X124640000Y-55700000D03*
%TO.P,P1,9,Pin_9*%
%TO.N,/IO22{slash}SCL*%
X127180000Y-55700000D03*
%TO.P,P1,8,Pin_8*%
%TO.N,/IO19{slash}MISO*%
X129720000Y-55700000D03*
%TO.P,P1,7,Pin_7*%
%TO.N,/IO23{slash}MOSI*%
X132260000Y-55700000D03*
%TO.P,P1,6,Pin_6*%
%TO.N,/IO18{slash}SCK*%
X134800000Y-55700000D03*
%TO.P,P1,5,Pin_5*%
%TO.N,/EN*%
X137340000Y-55700000D03*
%TO.P,P1,4,Pin_4*%
%TO.N,GND*%
X139880000Y-55700000D03*
%TO.P,P1,3,Pin_3*%
%TO.N,unconnected-(P1-Pin_3-Pad3)*%
X142420000Y-55700000D03*
%TO.P,P1,2,Pin_2*%
%TO.N,+3V3*%
X144960000Y-55700000D03*
D14*
%TO.P,P1,1,Pin_1*%
%TO.N,/RST*%
X147500000Y-55700000D03*
%TD*%
D17*
%TO.N,GND*%
X132760000Y-78550000D02*
X141035000Y-86825000D01*
X141035000Y-86825000D02*
X147925000Y-86825000D01*
%TO.N,VCC*%
X141625000Y-84545000D02*
X137840000Y-80760000D01*
X137840000Y-80760000D02*
X137840000Y-78550000D01*
%TO.N,GND*%
X105550000Y-83960000D02*
X108415000Y-86825000D01*
X108415000Y-86825000D02*
X147925000Y-86825000D01*
%TO.N,+3.3V*%
X105550000Y-89040000D02*
X141560000Y-89040000D01*
X141560000Y-89040000D02*
X141625000Y-89105000D01*
%TO.N,/IO17{slash}D10*%
X161750000Y-94320000D02*
X161750000Y-93850000D01*
X161750000Y-93850000D02*
X144100000Y-76200000D01*
X144100000Y-76200000D02*
X107170000Y-76200000D01*
X107170000Y-76200000D02*
X104820000Y-78550000D01*
%TO.N,GND*%
X132760000Y-94240000D02*
X132770000Y-94250000D01*
%TO.N,VCC*%
X137840000Y-94240000D02*
X137850000Y-94250000D01*
%TO.N,/D0(Rx)*%
X104320000Y-55700000D02*
X104320000Y-52250000D01*
%TO.N,/D1(Tx)*%
X106860000Y-55700000D02*
X106860000Y-52250000D01*
%TO.N,/IO25{slash}D2*%
X109400000Y-55700000D02*
X109400000Y-52250000D01*
%TO.N,/IO26{slash}D3*%
X111940000Y-55700000D02*
X111940000Y-52250000D01*
%TO.N,/IO0{slash}D5*%
X114480000Y-55700000D02*
X114480000Y-52250000D01*
%TO.N,/IO14{slash}D6*%
X117020000Y-55700000D02*
X117020000Y-52250000D01*
%TO.N,/IO13{slash}D7*%
X119560000Y-55700000D02*
X119560000Y-52250000D01*
%TO.N,/IO2{slash}D9*%
X122100000Y-55700000D02*
X122100000Y-52250000D01*
%TO.N,/IO21{slash}SDA*%
X124640000Y-55700000D02*
X124640000Y-52250000D01*
%TO.N,/IO22{slash}SCL*%
X127180000Y-55700000D02*
X127180000Y-52250000D01*
%TO.N,/IO19{slash}MISO*%
X129720000Y-55700000D02*
X129720000Y-52250000D01*
%TO.N,/IO23{slash}MOSI*%
X132260000Y-55700000D02*
X132260000Y-52250000D01*
%TO.N,/IO18{slash}SCK*%
X134800000Y-55700000D02*
X134800000Y-52250000D01*
%TO.N,/EN*%
X137340000Y-55700000D02*
X137340000Y-52250000D01*
%TO.N,GND*%
X139880000Y-55700000D02*
X139880000Y-52250000D01*
%TO.N,+3V3*%
X144960000Y-55700000D02*
X144960000Y-52250000D01*
%TO.N,/RST*%
X147500000Y-55700000D02*
X147500000Y-52250000D01*
%TO.N,GND*%
X161750000Y-84160000D02*
X139880000Y-62290000D01*
%TO.N,/IO23{slash}MOSI*%
X161750000Y-91780000D02*
X132260000Y-62290000D01*
%TO.N,/IO18{slash}SCK*%
X161750000Y-89240000D02*
X134800000Y-62290000D01*
%TO.N,/IO23{slash}MOSI*%
X132260000Y-62290000D02*
X132260000Y-55700000D01*
%TO.N,/IO18{slash}SCK*%
X134800000Y-62290000D02*
X134800000Y-55700000D01*
%TO.N,GND*%
X139880000Y-62290000D02*
X139880000Y-55700000D01*
%TD*%
M02*
