%TF.GenerationSoftware,KiCad,Pcbnew,9.0.7*%
%TF.CreationDate,2026-02-01T00:50:37+02:00*%
%TF.ProjectId,shield,73686965-6c64-42e6-9b69-6361645f7063,rev?*%
%TF.SameCoordinates,Original*%
%TF.FileFunction,Soldermask,Top*%
%TF.FilePolarity,Negative*%
%FSLAX46Y46*%
G04 Gerber Fmt 4.6, Leading zero omitted, Abs format (unit mm)*
G04 Created by KiCad (PCBNEW 9.0.7) date 2026-02-01 00:50:37*
%MOMM*%
%LPD*%
G01*
G04 APERTURE LIST*
G04 Aperture macros list*
%AMRoundRect*
0 Rectangle with rounded corners*
0 $1 Rounding radius*
0 $2 $3 $4 $5 $6 $7 $8 $9 X,Y pos of 4 corners*
0 Add a 4 corners polygon primitive as box body*
4,1,4,$2,$3,$4,$5,$6,$7,$8,$9,$2,$3,0*
0 Add four circle primitives for the rounded corners*
1,1,$1+$1,$2,$3*
1,1,$1+$1,$4,$5*
1,1,$1+$1,$6,$7*
1,1,$1+$1,$8,$9*
0 Add four rect primitives between the rounded corners*
20,1,$1+$1,$2,$3,$4,$5,0*
20,1,$1+$1,$4,$5,$6,$7,0*
20,1,$1+$1,$6,$7,$8,$9,0*
20,1,$1+$1,$8,$9,$2,$3,0*%
G04 Aperture macros list end*
%ADD10C,1.700000*%
%ADD11R,1.700000X1.700000*%
%ADD12RoundRect,0.250000X-0.850000X-0.350000X0.850000X-0.350000X0.850000X0.350000X-0.850000X0.350000X0*%
%ADD13RoundRect,0.249997X-2.950003X-2.650003X2.950003X-2.650003X2.950003X2.650003X-2.950003X2.650003X0*%
G04 APERTURE END LIST*
D10*
%TO.C,J1*%
X161750000Y-84160000D03*
X161750000Y-86700000D03*
X161750000Y-89240000D03*
X161750000Y-91780000D03*
X161750000Y-94320000D03*
D11*
X161750000Y-96860000D03*
%TD*%
%TO.C,P7*%
X120050000Y-94150000D03*
D10*
X117510000Y-94150000D03*
X114970000Y-94150000D03*
X112430000Y-94150000D03*
X109890000Y-94150000D03*
%TD*%
D11*
%TO.C,P6*%
X105550000Y-89040000D03*
D10*
X105550000Y-86500000D03*
X105550000Y-83960000D03*
%TD*%
D12*
%TO.C,U1*%
X141625000Y-84545000D03*
D13*
X147925000Y-86825000D03*
D12*
X141625000Y-89105000D03*
%TD*%
D11*
%TO.C,P3*%
X137840000Y-78550000D03*
D10*
X135300000Y-78550000D03*
X132760000Y-78550000D03*
X130220000Y-78550000D03*
X127680000Y-78550000D03*
X125140000Y-78550000D03*
X122600000Y-78550000D03*
X120060000Y-78550000D03*
X117520000Y-78550000D03*
X114980000Y-78550000D03*
X112440000Y-78550000D03*
X109900000Y-78550000D03*
X107360000Y-78550000D03*
X104820000Y-78550000D03*
%TD*%
D11*
%TO.C,P5*%
X137850000Y-94250000D03*
D10*
X135310000Y-94250000D03*
X132770000Y-94250000D03*
%TD*%
D11*
%TO.C,P4*%
X147500000Y-52250000D03*
D10*
X144960000Y-52250000D03*
X142420000Y-52250000D03*
X139880000Y-52250000D03*
X137340000Y-52250000D03*
X134800000Y-52250000D03*
X132260000Y-52250000D03*
X129720000Y-52250000D03*
X127180000Y-52250000D03*
X124640000Y-52250000D03*
X122100000Y-52250000D03*
X119560000Y-52250000D03*
X117020000Y-52250000D03*
X114480000Y-52250000D03*
X111940000Y-52250000D03*
X109400000Y-52250000D03*
X106860000Y-52250000D03*
X104320000Y-52250000D03*
%TD*%
%TO.C,P1*%
X104320000Y-55700000D03*
X106860000Y-55700000D03*
X109400000Y-55700000D03*
X111940000Y-55700000D03*
X114480000Y-55700000D03*
X117020000Y-55700000D03*
X119560000Y-55700000D03*
X122100000Y-55700000D03*
X124640000Y-55700000D03*
X127180000Y-55700000D03*
X129720000Y-55700000D03*
X132260000Y-55700000D03*
X134800000Y-55700000D03*
X137340000Y-55700000D03*
X139880000Y-55700000D03*
X142420000Y-55700000D03*
X144960000Y-55700000D03*
D11*
X147500000Y-55700000D03*
%TD*%
M02*
